{
	"asset":{
		"generator":"Khronos glTF Blender I/O v3.5.30",
		"version":"2.0"
	},
	"scene":0,
	"scenes":[
		{
			"name":"Scene",
			"nodes":[
				0,
				1,
				2,
				3,
				4,
				5,
				6,
				7,
				8,
				9,
				10,
				11
			]
		}
	],
	"nodes":[
		{
			"mesh":0,
			"name":"Sphere",
			"scale":[
				0.25,
				0.25,
				0.25
			],
			"translation":[
				0.15098515152931213,
				0.7396917343139648,
				2.2411646842956543
			]
		},
		{
			"mesh":0,
			"name":"Sphere_001",
			"scale":[
				0.25,
				0.25,
				0.25
			],
			"translation":[
				0.15098515152931213,
				0.7396917343139648,
				-1.5088353157043457
			]
		},
		{
			"mesh":1,
			"name":"Sphere_002",
			"scale":[
				0.25,
				0.25,
				0.25
			],
			"translation":[
				2.0259852409362793,
				0.7396917343139648,
				0.36616453528404236
			]
		},
		{
			"mesh":2,
			"name":"Sphere_003",
			"scale":[
				0.25,
				0.25,
				0.25
			],
			"translation":[
				-1.7240147590637207,
				0.7396917343139648,
				0.36616453528404236
			]
		},
		{
			"mesh":3,
			"name":"Sphere_004",
			"scale":[
				0.25,
				0.25,
				0.25
			],
			"translation":[
				1.4634852409362793,
				0.7396917343139648,
				1.6786646842956543
			]
		},
		{
			"mesh":3,
			"name":"Sphere_005",
			"scale":[
				0.25,
				0.25,
				0.25
			],
			"translation":[
				-1.1615147590637207,
				0.7396917343139648,
				-0.9463353157043457
			]
		},
		{
			"mesh":4,
			"name":"Sphere_006",
			"scale":[
				0.25,
				0.25,
				0.25
			],
			"translation":[
				1.4634852409362793,
				0.7396917343139648,
				-0.9463353157043457
			]
		},
		{
			"mesh":4,
			"name":"Sphere_007",
			"scale":[
				0.25,
				0.25,
				0.25
			],
			"translation":[
				-1.1615147590637207,
				0.7396917343139648,
				1.6786646842956543
			]
		},
		{
			"mesh":5,
			"name":"Plane_001_001",
			"scale":[
				0.125,
				0.125,
				0.125
			],
			"translation":[
				0.15098515152931213,
				-0.006890773773193359,
				0.36616453528404236
			]
		},
		{
			"mesh":6,
			"name":"Sphere_008",
			"scale":[
				-0.6194595098495483,
				-0.6194595098495483,
				-0.6194595098495483
			],
			"translation":[
				-1.7120361328125,
				0.7788670063018799,
				2.927499294281006
			]
		},
		{
			"mesh":7,
			"name":"Sphere_009",
			"scale":[
				-0.5178999900817871,
				-0.5178999900817871,
				-0.5178999900817871
			],
			"translation":[
				2.6179466247558594,
				0.5903961658477783,
				-0.7305121421813965
			]
		},
		{
			"mesh":8,
			"name":"Body",
			"scale":[
				0.3890726566314697,
				0.3890726566314697,
				0.3890726566314697
			],
			"translation":[
				0,
				1.4387062788009644,
				0.25498664379119873
			]
		}
	],
	"materials":[
		{
			"doubleSided":true,
			"name":"m0_01___Default_001",
			"pbrMetallicRoughness":{
				"baseColorFactor":[
					0.800000011920929,
					0,
					0,
					1
				],
				"metallicFactor":0,
				"roughnessFactor":0.5
			}
		},
		{
			"doubleSided":true,
			"name":"m2_01___Default3",
			"pbrMetallicRoughness":{
				"baseColorFactor":[
					0,
					0.8235290050506592,
					0.011998440138995647,
					1
				],
				"metallicFactor":0,
				"roughnessFactor":0.5
			}
		},
		{
			"doubleSided":true,
			"name":"m1_09___Default",
			"pbrMetallicRoughness":{
				"baseColorFactor":[
					1,
					0.7294120192527771,
					0,
					1
				],
				"metallicFactor":0,
				"roughnessFactor":0.5
			}
		},
		{
			"doubleSided":true,
			"name":"m3_01___Default2",
			"pbrMetallicRoughness":{
				"baseColorFactor":[
					0,
					0.035294000059366226,
					0.47450998425483704,
					1
				],
				"metallicFactor":0,
				"roughnessFactor":0.5
			}
		},
		{
			"doubleSided":true,
			"name":"Material_005",
			"pbrMetallicRoughness":{
				"metallicFactor":0,
				"roughnessFactor":0.5
			}
		},
		{
			"doubleSided":true,
			"name":"Material_004",
			"pbrMetallicRoughness":{
				"baseColorFactor":[
					0,
					0,
					0,
					1
				],
				"metallicFactor":0,
				"roughnessFactor":0.5
			}
		},
		{
			"doubleSided":true,
			"name":"m_reflect",
			"pbrMetallicRoughness":{
				"metallicFactor":0,
				"roughnessFactor":0.5
			}
		},
		{
			"doubleSided":true,
			"name":"Material_001",
			"pbrMetallicRoughness":{
				"baseColorTexture":{
					"index":0
				},
				"metallicFactor":0,
				"roughnessFactor":0.5
			}
		}
	],
	"meshes":[
		{
			"name":"Sphere",
			"primitives":[
				{
					"attributes":{
						"POSITION":0,
						"NORMAL":1
					},
					"indices":2,
					"material":0
				}
			]
		},
		{
			"name":"Sphere.002",
			"primitives":[
				{
					"attributes":{
						"POSITION":3,
						"NORMAL":4
					},
					"indices":2,
					"material":1
				}
			]
		},
		{
			"name":"Sphere.001",
			"primitives":[
				{
					"attributes":{
						"POSITION":5,
						"NORMAL":6
					},
					"indices":2,
					"material":1
				}
			]
		},
		{
			"name":"Sphere.003",
			"primitives":[
				{
					"attributes":{
						"POSITION":7,
						"NORMAL":8
					},
					"indices":2,
					"material":2
				}
			]
		},
		{
			"name":"Sphere.004",
			"primitives":[
				{
					"attributes":{
						"POSITION":9,
						"NORMAL":10
					},
					"indices":2,
					"material":3
				}
			]
		},
		{
			"name":"Plane.000",
			"primitives":[
				{
					"attributes":{
						"POSITION":11,
						"TEXCOORD_0":12,
						"NORMAL":13
					},
					"indices":14,
					"material":4
				},
				{
					"attributes":{
						"POSITION":15,
						"TEXCOORD_0":16,
						"NORMAL":17
					},
					"indices":18,
					"material":5
				}
			]
		},
		{
			"name":"Sphere.005",
			"primitives":[
				{
					"attributes":{
						"POSITION":19,
						"NORMAL":20
					},
					"indices":21,
					"material":6
				}
			]
		},
		{
			"name":"Sphere.006",
			"primitives":[
				{
					"attributes":{
						"POSITION":22,
						"NORMAL":23
					},
					"indices":21,
					"material":6
				}
			]
		},
		{
			"name":"Cylinder",
			"primitives":[
				{
					"attributes":{
						"POSITION":24,
						"TEXCOORD_0":25,
						"TEXCOORD_1":26,
						"TEXCOORD_2":27,
						"NORMAL":28
					},
					"indices":29,
					"material":7
				}
			]
		}
	],
	"textures":[
		{
			"sampler":0,
			"source":0
		}
	],
	"images":[
		{
			"bufferView":30,
			"mimeType":"image/png",
			"name":"deer1kb"
		}
	],
	"accessors":[
		{
			"bufferView":0,
			"componentType":5126,
			"count":3842,
			"max":[
				0.9964627027511597,
				0.9976217150688171,
				0.9967479109764099
			],
			"min":[
				-0.9964627027511597,
				-0.9976217150688171,
				-0.9967479109764099
			],
			"type":"VEC3"
		},
		{
			"bufferView":1,
			"componentType":5126,
			"count":3842,
			"type":"VEC3"
		},
		{
			"bufferView":2,
			"componentType":5123,
			"count":23040,
			"type":"SCALAR"
		},
		{
			"bufferView":3,
			"componentType":5126,
			"count":3842,
			"max":[
				0.9964627027511597,
				0.9976217150688171,
				0.9967479109764099
			],
			"min":[
				-0.9964627027511597,
				-0.9976217150688171,
				-0.9967479109764099
			],
			"type":"VEC3"
		},
		{
			"bufferView":4,
			"componentType":5126,
			"count":3842,
			"type":"VEC3"
		},
		{
			"bufferView":5,
			"componentType":5126,
			"count":3842,
			"max":[
				0.9964627027511597,
				0.9976217150688171,
				0.9967479109764099
			],
			"min":[
				-0.9964627027511597,
				-0.9976217150688171,
				-0.9967479109764099
			],
			"type":"VEC3"
		},
		{
			"bufferView":6,
			"componentType":5126,
			"count":3842,
			"type":"VEC3"
		},
		{
			"bufferView":7,
			"componentType":5126,
			"count":3842,
			"max":[
				0.9964627027511597,
				0.9976217150688171,
				0.9967479109764099
			],
			"min":[
				-0.9964627027511597,
				-0.9976217150688171,
				-0.9967479109764099
			],
			"type":"VEC3"
		},
		{
			"bufferView":8,
			"componentType":5126,
			"count":3842,
			"type":"VEC3"
		},
		{
			"bufferView":9,
			"componentType":5126,
			"count":3842,
			"max":[
				0.9964627027511597,
				0.9976217150688171,
				0.9967479109764099
			],
			"min":[
				-0.9964627027511597,
				-0.9976217150688171,
				-0.9967479109764099
			],
			"type":"VEC3"
		},
		{
			"bufferView":10,
			"componentType":5126,
			"count":3842,
			"type":"VEC3"
		},
		{
			"bufferView":11,
			"componentType":5126,
			"count":174,
			"max":[
				30,
				0,
				30
			],
			"min":[
				-30,
				0,
				-30
			],
			"type":"VEC3"
		},
		{
			"bufferView":12,
			"componentType":5126,
			"count":174,
			"type":"VEC2"
		},
		{
			"bufferView":13,
			"componentType":5126,
			"count":174,
			"type":"VEC3"
		},
		{
			"bufferView":14,
			"componentType":5123,
			"count":240,
			"type":"SCALAR"
		},
		{
			"bufferView":15,
			"componentType":5126,
			"count":185,
			"max":[
				30,
				0,
				30
			],
			"min":[
				-30,
				0,
				-30
			],
			"type":"VEC3"
		},
		{
			"bufferView":16,
			"componentType":5126,
			"count":185,
			"type":"VEC2"
		},
		{
			"bufferView":17,
			"componentType":5126,
			"count":185,
			"type":"VEC3"
		},
		{
			"bufferView":18,
			"componentType":5123,
			"count":246,
			"type":"SCALAR"
		},
		{
			"bufferView":19,
			"componentType":5126,
			"count":1986,
			"max":[
				0.9904161095619202,
				0.9989992380142212,
				0.9904155135154724
			],
			"min":[
				-0.990415632724762,
				-0.9989992380142212,
				-0.9904159307479858
			],
			"type":"VEC3"
		},
		{
			"bufferView":20,
			"componentType":5126,
			"count":1986,
			"type":"VEC3"
		},
		{
			"bufferView":21,
			"componentType":5123,
			"count":11904,
			"type":"SCALAR"
		},
		{
			"bufferView":22,
			"componentType":5126,
			"count":1986,
			"max":[
				0.9904161095619202,
				0.9989992380142212,
				0.9904155135154724
			],
			"min":[
				-0.990415632724762,
				-0.9989992380142212,
				-0.9904159307479858
			],
			"type":"VEC3"
		},
		{
			"bufferView":23,
			"componentType":5126,
			"count":1986,
			"type":"VEC3"
		},
		{
			"bufferView":24,
			"componentType":5126,
			"count":2440,
			"max":[
				1.6896778345108032,
				3.1995842456817627,
				2.591789722442627
			],
			"min":[
				-1.579124093055725,
				-3.761706590652466,
				-3.4478421211242676
			],
			"type":"VEC3"
		},
		{
			"bufferView":25,
			"componentType":5126,
			"count":2440,
			"type":"VEC2"
		},
		{
			"bufferView":26,
			"componentType":5126,
			"count":2440,
			"type":"VEC2"
		},
		{
			"bufferView":27,
			"componentType":5126,
			"count":2440,
			"type":"VEC2"
		},
		{
			"bufferView":28,
			"componentType":5126,
			"count":2440,
			"type":"VEC3"
		},
		{
			"bufferView":29,
			"componentType":5123,
			"count":10764,
			"type":"SCALAR"
		}
	],
	"bufferViews":[
		{
			"buffer":0,
			"byteLength":46104,
			"byteOffset":0,
			"target":34962
		},
		{
			"buffer":0,
			"byteLength":46104,
			"byteOffset":46104,
			"target":34962
		},
		{
			"buffer":0,
			"byteLength":46080,
			"byteOffset":92208,
			"target":34963
		},
		{
			"buffer":0,
			"byteLength":46104,
			"byteOffset":138288,
			"target":34962
		},
		{
			"buffer":0,
			"byteLength":46104,
			"byteOffset":184392,
			"target":34962
		},
		{
			"buffer":0,
			"byteLength":46104,
			"byteOffset":230496,
			"target":34962
		},
		{
			"buffer":0,
			"byteLength":46104,
			"byteOffset":276600,
			"target":34962
		},
		{
			"buffer":0,
			"byteLength":46104,
			"byteOffset":322704,
			"target":34962
		},
		{
			"buffer":0,
			"byteLength":46104,
			"byteOffset":368808,
			"target":34962
		},
		{
			"buffer":0,
			"byteLength":46104,
			"byteOffset":414912,
			"target":34962
		},
		{
			"buffer":0,
			"byteLength":46104,
			"byteOffset":461016,
			"target":34962
		},
		{
			"buffer":0,
			"byteLength":2088,
			"byteOffset":507120,
			"target":34962
		},
		{
			"buffer":0,
			"byteLength":1392,
			"byteOffset":509208,
			"target":34962
		},
		{
			"buffer":0,
			"byteLength":2088,
			"byteOffset":510600,
			"target":34962
		},
		{
			"buffer":0,
			"byteLength":480,
			"byteOffset":512688,
			"target":34963
		},
		{
			"buffer":0,
			"byteLength":2220,
			"byteOffset":513168,
			"target":34962
		},
		{
			"buffer":0,
			"byteLength":1480,
			"byteOffset":515388,
			"target":34962
		},
		{
			"buffer":0,
			"byteLength":2220,
			"byteOffset":516868,
			"target":34962
		},
		{
			"buffer":0,
			"byteLength":492,
			"byteOffset":519088,
			"target":34963
		},
		{
			"buffer":0,
			"byteLength":23832,
			"byteOffset":519580,
			"target":34962
		},
		{
			"buffer":0,
			"byteLength":23832,
			"byteOffset":543412,
			"target":34962
		},
		{
			"buffer":0,
			"byteLength":23808,
			"byteOffset":567244,
			"target":34963
		},
		{
			"buffer":0,
			"byteLength":23832,
			"byteOffset":591052,
			"target":34962
		},
		{
			"buffer":0,
			"byteLength":23832,
			"byteOffset":614884,
			"target":34962
		},
		{
			"buffer":0,
			"byteLength":29280,
			"byteOffset":638716,
			"target":34962
		},
		{
			"buffer":0,
			"byteLength":19520,
			"byteOffset":667996,
			"target":34962
		},
		{
			"buffer":0,
			"byteLength":19520,
			"byteOffset":687516,
			"target":34962
		},
		{
			"buffer":0,
			"byteLength":19520,
			"byteOffset":707036,
			"target":34962
		},
		{
			"buffer":0,
			"byteLength":29280,
			"byteOffset":726556,
			"target":34962
		},
		{
			"buffer":0,
			"byteLength":21528,
			"byteOffset":755836,
			"target":34963
		},
		{
			"buffer":0,
			"byteLength":897816,
			"byteOffset":777364
		}
	],
	"samplers":[
		{
			"magFilter":9729,
			"minFilter":9987
		}
	],
	"buffers":[
		{
			"byteLength":1675180,
			"uri":"data:application/octet-stream;base64,"
		}
	]
}
